<?xml version="1.0" standalone="no"?><!DOCTYPE svg PUBLIC "-//W3C//DTD SVG 1.1//EN" "http://www.w3.org/Graphics/SVG/1.1/DTD/svg11.dtd"><svg width="100%" height="100%" viewBox="0 0 500 600" version="1.1" xmlns="http://www.w3.org/2000/svg" xmlns:xlink="http://www.w3.org/1999/xlink" xml:space="preserve" style="fill-rule:evenodd;clip-rule:evenodd;stroke-linejoin:round;stroke-miterlimit:1.41421;"><g id="Ebene 1"><g><path d="M288.025,447.225l8.379,0l0,100.979c-2.793,-0.059 -5.82,0.116 -8.467,-0.089l0,-100.626c-0.008,-0.125 -0.014,-0.249 0.088,-0.264" style="fill:#000;"/><path d="M309.103,447.225l9.26,0l0,10.671l-9.348,0c0.059,-3.528 -0.117,-7.291 0.088,-10.671" style="fill:#000;"/><path d="M169.85,477.827l6.438,0l0,7.144l-6.35,0c-0.161,15.628 -0.087,33.086 -0.088,49.474c0,2.484 -0.141,4.96 0.706,6.351c0.891,1.465 3.48,1.74 5.732,1.588l0,7.407c-5.558,0.356 -11.029,0.033 -13.052,-3.792c-1.837,-3.473 -1.764,-8.618 -1.764,-13.935l0,-47.093l-4.586,0l0,-7.144l4.586,0l0,-15.521c2.736,-1.116 5.731,-2.442 8.378,-3.352l0,18.873Z" style="fill:#000;"/><path d="M440.772,459.924l7.32,0l0,1.939l-2.557,0c-0.206,7.585 -0.03,15.551 -0.088,23.284c-0.713,-0.052 -1.636,0.107 -2.205,-0.088l0,-23.196l-2.558,0c0.058,-0.617 -0.116,-1.468 0.088,-1.939" style="fill:#000;"/><path d="M450.473,459.924l3.704,0c0.712,7.813 1.634,15.416 2.381,23.194c0.492,-1.796 0.589,-3.745 0.794,-5.644c0.626,-5.816 1.136,-11.767 1.764,-17.55l3.704,0l0,25.223c-0.627,-0.049 -1.457,0.104 -1.94,-0.088c-0.059,-7.733 0.116,-15.699 -0.089,-23.283c-0.448,0.252 -0.315,0.939 -0.352,1.323c-0.693,7.184 -1.585,14.893 -2.382,22.048l-2.998,0c-0.897,-7.776 -1.568,-15.777 -2.646,-23.371c-0.409,7.422 -0.06,15.607 -0.176,23.371l-1.852,0c0.059,-8.379 -0.118,-16.993 0.088,-25.223" style="fill:#000;"/><path d="M45.854,497.493l0,27.869c0,4.831 -0.156,9.944 1.587,12.347c1.29,1.777 4.721,2.487 6.791,1.322c2.867,-1.612 2.998,-7.071 2.998,-12.347l0,-30.778c0,-5.015 0.097,-10.618 -3.175,-12.259c-0.896,-0.449 -2.685,-0.47 -3.527,-0.351c-5.18,0.727 -4.674,8.311 -4.674,14.197M57.23,482.059c0.272,-1.374 0.428,-2.864 0.706,-4.232l7.849,0l0,74.08c0,6.582 -0.049,12.471 -1.676,16.846c-1.699,4.568 -5.505,6.821 -11.553,6.966c-6.309,0.151 -10.847,-1.43 -13.052,-5.467c-2.121,-3.883 -2.442,-9.396 -2.293,-16.228l8.819,0c0.245,4.636 -0.546,9.627 1.235,12.612c1.527,2.56 6.392,2.626 8.201,0.352c2.068,-2.597 1.764,-8.103 1.764,-13.228l0,-12.876c-0.827,1.006 -1.354,1.991 -2.205,2.822c-4.069,3.973 -12.866,4.09 -15.786,-0.882c-1.989,-3.386 -2.028,-9.023 -2.028,-14.64l0,-33.336c0,-9.298 0.061,-18.017 8.378,-18.697c5.953,-0.486 9.354,2.275 11.641,5.908" style="fill:#000;"/><path d="M98.151,496.082c0,-6.201 0.351,-13.357 -6.085,-12.786c-5.11,0.451 -5.027,6.807 -5.027,12.521l0,14.024c3.528,0.205 7.437,0.029 11.112,0.088l0,-13.847ZM106.97,517.072l-19.931,0l0,12.964c0,4.085 -0.121,9.028 1.763,11.2c1.721,1.983 5.942,1.924 7.585,0c2.914,-3.413 1.277,-11.504 1.764,-17.197l8.819,0c-0.183,7.943 0.514,14.789 -2.205,20.196c-1.86,3.7 -6.043,5.454 -11.112,5.645c-5.184,0.193 -9.865,-1.061 -12.258,-4.41c-2.785,-3.897 -2.999,-11.15 -2.999,-18.079l0,-21.079c0,-7.57 -0.364,-14.729 0.794,-20.283c1.304,-6.259 4.631,-9.44 11.465,-9.878c6.965,-0.445 11.68,1.318 13.934,5.468c2.284,4.205 2.381,10.204 2.381,16.58l0,18.873Z" style="fill:#000;"/><path d="M148.155,548.204l-8.378,0l0,-48.241c0,-5.055 0.523,-11.394 -1.499,-14.552c-1.697,-2.65 -6.895,-2.78 -8.731,-0.088c-2.095,3.072 -1.588,9.548 -1.588,14.552l0,48.329l-8.378,0l0,-70.377l7.849,0c0.207,1.352 0.371,2.746 0.529,4.145c1.963,-2.721 4.554,-5.457 8.996,-5.821c11.349,-0.926 11.2,8.926 11.2,19.578l0,52.475Z" style="fill:#000;"/><path d="M193.132,497.846c0,9.196 0,20.624 0,29.809c0,5.018 -0.416,10.863 1.587,13.405c1.654,2.096 5.793,1.901 7.32,0.528c2.455,-2.205 2.205,-8.402 2.205,-13.493c0,-10.719 0.001,-20.319 0,-31.395c0,-6.442 0.397,-14.163 -6.261,-13.317c-5.486,0.695 -4.851,8.254 -4.851,14.463M196.571,476.239c5.01,-0.392 9.74,0.503 12.347,2.998c4.961,4.747 4.145,16.452 4.145,26.37c0.001,5.188 0,10.388 0,15.257c0.001,10.001 0.789,21.609 -4.41,26.192c-2.86,2.522 -7.631,3.206 -12.346,2.734c-4.383,-0.438 -7.887,-2.213 -9.613,-5.643c-1.832,-3.645 -2.179,-8.982 -2.293,-14.729c-0.121,-6.142 0,-11.223 0,-16.932c0,-6.122 -0.267,-11.38 0,-17.021c0.24,-5.073 0.535,-10.936 2.558,-14.375c1.807,-3.074 5.412,-4.523 9.612,-4.851" style="fill:#000;"/><path d="M234.053,498.288l0,30.778c0,5.067 -0.232,11.019 2.557,12.876c1.797,1.197 5.157,0.821 6.438,-0.353c2.408,-2.204 2.117,-8.58 2.117,-13.581c-0.001,-10.538 0,-20.437 0,-31.396c-0.001,-6.485 0.346,-14.068 -6.262,-13.228c-5.594,0.709 -4.85,8.646 -4.85,14.904M237.492,476.239c6.264,-0.489 11.866,0.979 14.199,5.557c2.509,4.924 2.293,13.39 2.293,21.342c0.001,8.088 0,15.627 0,23.546c0.001,7.771 -0.124,15.857 -3.88,19.756c-3.666,3.804 -12.784,4.746 -18.432,1.764c-5.398,-2.851 -6.055,-9.716 -6.35,-18.256c-0.206,-5.96 0,-11.197 0,-16.845c0,-5.749 -0.127,-11.642 0,-16.932c0.124,-5.186 0.472,-10.994 2.293,-14.552c1.771,-3.46 5.45,-5.033 9.877,-5.38" style="fill:#000;"/><path d="M359.372,548.204l-8.378,0c0.001,-15.498 -0.001,-31.815 0,-47.889c0,-5.063 0.572,-11.291 -1.322,-14.638c-1.24,-2.194 -4.961,-3.229 -7.586,-1.588c-3.223,2.015 -2.821,8.68 -2.821,13.934l0,50.092c-2.646,0.205 -5.673,0.03 -8.466,0.089l0,-70.377l7.848,0c0.23,1.329 0.382,2.734 0.529,4.145c1.984,-2.699 4.556,-5.457 8.996,-5.821c11.296,-0.923 11.2,8.77 11.2,19.49c0.001,17.23 0,36.413 0,52.563" style="fill:#000;"/><path d="M309.456,477.827l8.378,0c-0.059,23.43 0.118,47.093 -0.088,70.377l-8.29,0c-0.206,-23.194 -0.029,-46.771 -0.088,-70.112c-0.008,-0.125 -0.015,-0.249 0.088,-0.265" style="fill:#000;"/><path d="M372.336,477.827l8.379,0c0.002,15.116 -0.002,31.862 0,47.888c0,6.217 -0.963,14.989 3.615,16.669c2.69,0.985 5.449,-0.098 6.527,-1.853c1.993,-3.247 1.499,-9.513 1.499,-14.552c-0.001,-16.056 0.001,-32.517 0,-48.152l8.554,0l0,70.288c-2.44,0.205 -5.261,0.03 -7.849,0.089c-0.317,-1.329 -0.487,-2.806 -0.705,-4.233c-1.807,3.354 -5.819,5.964 -11.201,5.732c-8.975,-0.388 -8.908,-9.738 -8.907,-19.314c0.002,-17.351 -0.002,-35.448 0,-52.297c-0.008,-0.125 -0.015,-0.249 0.088,-0.265" style="fill:#000;"/><path d="M409.641,477.827l8.73,0c2.042,8.57 4.032,17.193 5.998,25.84c2.07,-8.513 3.945,-17.221 5.909,-25.84l8.025,0c-2.969,10.447 -5.812,21.085 -8.819,31.838c-0.204,0.727 -0.607,1.496 -0.617,2.027c-0.024,1.104 0.996,3.447 1.323,4.586c3.057,10.661 6.02,21.384 9.083,31.926l-9.083,0c-2.311,-9.654 -4.659,-19.271 -6.879,-29.016c-2.402,9.565 -4.613,19.317 -6.88,29.016l-8.024,0c3.071,-10.548 6.053,-21.276 9.171,-32.102c0.426,-1.481 1.305,-3.228 1.323,-4.498c0.015,-1.143 -0.771,-2.875 -1.147,-4.233c-2.707,-9.773 -5.403,-19.629 -8.113,-29.279c0.018,-0.152 -0.15,-0.229 0,-0.265" style="fill:#000;"/></g><g id="g5680"><path id="path2973" d="M63.788,329.787c0.042,-16.446 14.023,-39.407 33.889,-60.268c13.275,-13.94 26.758,-26.177 56.15,-51.237c-20.331,-11.156 -51.95,-24.615 -67.816,-42.242c-5.87,-6.522 -16.51,-21.298 -14.446,-41.04c4.206,-40.235 53.868,-101.297 124.459,-114.207c23.488,-4.295 50.455,-1.194 72.65,8.784c69.629,31.304 154.782,109.073 165.259,147.046c3.688,13.366 2.979,34.671 -3.378,46.544c-7.88,14.717 -35.157,44.607 -72.476,75.45c-58.556,48.394 -140.611,100.359 -201.881,109.103c-19.797,2.826 -40.024,-0.121 -54.218,-8.131c-22.208,-12.531 -29.58,-29.261 -32.172,-34.276c-6.891,-13.335 -6.035,-30.228 -6.02,-35.526ZM228.587,145.011c0.756,-9.325 37.322,-0.041 35.011,7.344c-2.437,7.79 -35.878,3.354 -35.011,-7.344Z" style="fill:url(#_Linear1);"/><g id="mid"><path id="path2975" d="M173.616,202.874c-19.241,16.246 -32.035,27.2 -48.075,41.86c-38.626,35.303 -64.87,62.176 -51.34,98.909c15.609,42.374 49.824,40.226 89.947,32.349c103.421,-20.397 273.426,-151.094 264.761,-199.369c-7.011,-39.061 -101.991,-116.721 -158.227,-144.356c-17.568,-8.634 -37.816,-13.099 -58.124,-12.143c-77.327,3.649 -137.714,74.052 -134.629,112.197c3.001,37.11 96.794,69.446 95.687,70.553ZM162.009,73.321c-23.268,25.887 -8.391,75.974 30.196,103.274c45.151,31.944 118.268,37.728 132.818,13.093c27.14,-45.952 -2.492,-94.54 -46.726,-116.214c-43.711,-21.418 -101.784,-16.291 -116.288,-0.153l0,0Z" style="fill:url(#_Linear2);"/><path id="path4976" d="M241.361,175.509c32.665,4.54 60.822,-8.542 65.225,-40.798c3.353,-24.571 -34.251,-51.417 -56.86,-57.609c-18.88,-5.17 -59.869,1.479 -62.632,37.187c-2.873,37.121 35.22,58.572 54.267,61.22ZM225.364,113.77c-21.468,33.258 31.17,43.483 39.229,37.417c34.744,-26.148 -29.771,-52.069 -39.229,-37.417Z" style="fill:url(#_Radial3);"/></g><path id="path2977" d="M206.325,28.96c-37.973,4.002 -45.246,8.89 -79.647,34.917c-11.529,8.723 -32.75,29.948 -38.187,55.128c-2.071,9.59 0.377,17.869 7.284,23.676c22.115,18.593 59.13,33.677 89.497,48.259c8.895,4.271 3.005,12.015 -11.338,24.432c-36.193,31.334 -85.128,69.476 -88.544,98.539c-1.609,13.696 3.079,32.306 19.703,41.829c19.418,11.125 59.729,3.864 86.645,-6.159c39.334,-14.647 91.003,-46.973 132.023,-78.749c42.656,-33.042 82.316,-75.01 84.278,-81.855c2.409,-8.406 2.169,-16.17 -2.481,-25.096c-7.3,-14.017 -17.061,-24.433 -27.542,-36.091c-28.121,-29.647 -57.875,-55.697 -93.474,-75.66c-25.708,-14.416 -48.326,-26.32 -78.217,-23.17ZM262.106,95.427c27.434,13.263 55.607,48.102 -0.244,68.154c-15.188,5.452 -63.353,-13.391 -61.879,-39.107c2.151,-37.987 28.626,-45.242 62.123,-29.047l0,0Z" style="fill:url(#_Radial4);"/></g></g><defs><linearGradient id="_Linear1" x1="0" y1="0" x2="1" y2="0" gradientUnits="userSpaceOnUse" gradientTransform="matrix(244.692,1281.55,-1281.55,244.692,5.26495,-872.781)"><stop offset="0%" style="stop-color:#fff;stop-opacity:1"/><stop offset="34%" style="stop-color:#fff;stop-opacity:1"/><stop offset="51%" style="stop-color:#bebdf3;stop-opacity:1"/><stop offset="75%" style="stop-color:#867fb7;stop-opacity:1"/><stop offset="87%" style="stop-color:#9f99c7;stop-opacity:1"/><stop offset="100%" style="stop-color:#524c76;stop-opacity:1"/></linearGradient><linearGradient id="_Linear2" x1="0" y1="0" x2="1" y2="0" gradientUnits="userSpaceOnUse" gradientTransform="matrix(-73.9103,-331.394,331.394,-73.9103,306.28,306.967)"><stop offset="0%" style="stop-color:#fff;stop-opacity:1"/><stop offset="34%" style="stop-color:#fff;stop-opacity:1"/><stop offset="51%" style="stop-color:#bebbdb;stop-opacity:1"/><stop offset="75%" style="stop-color:#928bbe;stop-opacity:1"/><stop offset="87%" style="stop-color:#9f99c7;stop-opacity:1"/><stop offset="100%" style="stop-color:#524c76;stop-opacity:1"/></linearGradient><radialGradient id="_Radial3" cx="0" cy="0" r="1" gradientUnits="userSpaceOnUse" gradientTransform="matrix(65.7758,0,0,50.4149,219.576,105.5)"><stop offset="0%" style="stop-color:#fff;stop-opacity:1"/><stop offset="34%" style="stop-color:#fff;stop-opacity:1"/><stop offset="51%" style="stop-color:#bebbdb;stop-opacity:1"/><stop offset="75%" style="stop-color:#928bbe;stop-opacity:1"/><stop offset="87%" style="stop-color:#9f99c7;stop-opacity:1"/><stop offset="100%" style="stop-color:#524c76;stop-opacity:1"/></radialGradient><radialGradient id="_Radial4" cx="0" cy="0" r="1" gradientUnits="userSpaceOnUse" gradientTransform="matrix(-9.01713,572.145,-487.965,-7.68295,69.926,121.634)"><stop offset="0%" style="stop-color:#fff;stop-opacity:1"/><stop offset="34%" style="stop-color:#fff;stop-opacity:1"/><stop offset="51%" style="stop-color:#bebbdb;stop-opacity:1"/><stop offset="75%" style="stop-color:#928bbe;stop-opacity:1"/><stop offset="87%" style="stop-color:#9f99c7;stop-opacity:1"/><stop offset="100%" style="stop-color:#524c76;stop-opacity:1"/></radialGradient></defs></svg>